<?xml version="1.0" encoding="UTF-8"?>
<svg version="1.1" xmlns="http://www.w3.org/2000/svg" width="1174" height="212">
<path d="M0 0 C0.81926971 0.00359528 1.63853943 0.00719055 2.4826355 0.01089478 C3.34109573 0.01074875 4.19955597 0.01060272 5.08403015 0.01045227 C7.93559249 0.0111517 10.78709036 0.01894547 13.63864136 0.02676392 C15.61019353 0.02862799 17.58174615 0.03005194 19.55329895 0.03105164 C24.75324778 0.03487765 29.95316886 0.04470865 35.15310669 0.05575562 C40.45492172 0.06596794 45.75674121 0.07054887 51.05856323 0.07559204 C61.46938274 0.08633084 71.88018162 0.10340826 82.29098511 0.12442017 C82.29098511 0.45442017 82.29098511 0.78442017 82.29098511 1.12442017 C83.34157104 1.36676392 84.39215698 1.60910767 85.47457886 1.85879517 C93.07230391 3.65363319 100.3676832 5.40756243 107.29098511 9.12442017 C108.48401245 9.73543579 108.48401245 9.73543579 109.70114136 10.35879517 C122.35184253 17.31961374 131.41552466 28.16235183 135.74801636 41.92129517 C139.31618577 56.3993351 137.56771922 70.67272217 130.00192261 83.53457642 C122.61174216 94.72108243 111.58729715 102.88710207 99.29098511 108.12442017 C98.30098511 108.12442017 97.31098511 108.12442017 96.29098511 108.12442017 C104.18618261 122.85048642 112.12131226 137.54831321 120.29098511 152.12442017 C121.36920455 154.05145066 122.44732315 155.97853758 123.52536011 157.90567017 C124.09883179 158.93015259 124.67230347 159.95463501 125.26315308 161.01016235 C126.44522326 163.12237017 127.62654256 165.23499839 128.80709839 167.34805298 C131.61606245 172.37090709 134.43492529 177.38731158 137.29342651 182.38212585 C138.28518219 184.11623823 139.27297541 185.85261483 140.26071167 187.58901978 C141.5083268 189.7812989 142.76264171 191.96978197 144.02438354 194.15396118 C144.58415894 195.14065796 145.14393433 196.12735474 145.72067261 197.14395142 C146.2180896 198.01124878 146.71550659 198.87854614 147.22799683 199.77212524 C148.29098511 202.12442017 148.29098511 202.12442017 148.29098511 206.12442017 C133.77098511 206.12442017 119.25098511 206.12442017 104.29098511 206.12442017 C99.6013253 197.9175155 95.04408713 189.89567683 90.91598511 181.43692017 C85.21454307 169.89940346 79.25888866 158.50844185 73.16989136 147.17129517 C72.5017767 145.9265818 71.83380441 144.68179202 71.16598511 143.43692017 C70.84710327 142.84290405 70.52822144 142.24888794 70.19967651 141.63687134 C67.35539021 136.30799601 64.65309237 130.91119424 61.9916687 125.48892212 C60.22695405 121.91131419 58.35037882 118.55674301 56.29098511 115.12442017 C49.36098511 114.46442017 42.43098511 113.80442017 35.29098511 113.12442017 C34.96098511 143.81442017 34.63098511 174.50442017 34.29098511 206.12442017 C21.09098511 206.12442017 7.89098511 206.12442017 -5.70901489 206.12442017 C-7.47543082 204.35800424 -6.83413962 202.01382283 -6.8427583 199.66068554 C-6.84052758 198.87052705 -6.83829685 198.08036856 -6.83599854 197.26626587 C-6.83755853 196.43307233 -6.83911852 195.59987879 -6.84072578 194.74143696 C-6.84473934 191.9276742 -6.84154477 189.11396465 -6.83840942 186.30020142 C-6.83976331 184.29184945 -6.84154317 182.28349773 -6.84371948 180.27514648 C-6.84829536 174.8042325 -6.84650362 169.33333728 -6.8433404 163.86242294 C-6.84081759 158.15068255 -6.84315411 152.43894382 -6.84472656 146.72720337 C-6.84654849 137.13336904 -6.84414134 127.53954239 -6.83938599 117.94570923 C-6.83394332 106.83659785 -6.83570596 95.72750483 -6.84121239 84.6183939 C-6.84574286 75.09911472 -6.8463944 65.57984109 -6.84377372 56.06056118 C-6.84221058 50.3668888 -6.84201819 44.67322506 -6.84531021 38.97955322 C-6.84818797 33.62806967 -6.846215 28.2766099 -6.84041595 22.92512894 C-6.83908784 20.95500351 -6.83948333 18.98487609 -6.84167862 17.01475143 C-6.84438812 14.33733162 -6.84101147 11.65998927 -6.83599854 8.98257446 C-6.83822926 8.19241597 -6.84045998 7.40225748 -6.8427583 6.58815479 C-6.81898552 0.09752878 -6.46795733 0.01198575 0 0 Z M34.29098511 8.12442017 C34.29098511 40.13442017 34.29098511 72.14442017 34.29098511 105.12442017 C41.94292015 105.88961367 49.26319029 106.36793464 56.91598511 106.43692017 C57.99621948 106.46592407 59.07645386 106.49492798 60.18942261 106.52481079 C68.35137032 106.58950916 73.41321997 105.13714538 79.83004761 100.15176392 C91.97459199 87.98447694 95.5430751 75.01287839 95.72848511 58.18692017 C95.65664826 43.51873408 92.69027698 32.72359721 82.97848511 21.43692017 C68.28084228 8.79011122 53.55111831 8.12442017 34.29098511 8.12442017 Z " fill="#000000" transform="translate(965.7090148925781,2.875579833984375)"/>
<path d="M0 0 C107.98389021 0 107.98389021 0 128.75 19.25 C138.68170896 29.85018937 144.75508944 43.73398121 144.30859375 58.36328125 C142.38054528 74.83711314 135.83637956 87.22883546 123 98 C116.76224941 102.57637342 110.53045552 106.10554578 103 108 C106.872006 116.11212525 111.06290971 123.96979665 115.5625 131.75 C120.22853387 139.82097751 124.7243221 147.9688332 129.125 156.1875 C133.14369346 163.69161616 137.17202472 171.18723657 141.3125 178.625 C141.70501953 179.33108398 142.09753906 180.03716797 142.50195312 180.76464844 C144.51494069 184.37420152 146.55217779 187.96847805 148.61328125 191.55078125 C149.03504639 192.28796387 149.45681152 193.02514648 149.89135742 193.78466797 C150.69179493 195.18151301 151.4976392 196.57527893 152.30981445 197.96533203 C155 202.6650464 155 202.6650464 155 206 C148.82546709 206.19796271 142.65278465 206.34302108 136.47583008 206.43945312 C134.37556788 206.47965263 132.27552913 206.53422399 130.17602539 206.60351562 C127.15455069 206.70072891 124.13603577 206.74595912 121.11328125 206.78125 C120.17664139 206.82254028 119.24000153 206.86383057 118.27497864 206.90637207 C115.61968284 206.90819421 113.52505473 206.82858427 111 206 C108.67848289 203.60169993 107.33686287 201.03546732 106 198 C105.35998047 196.78183594 105.35998047 196.78183594 104.70703125 195.5390625 C104.41183594 194.90742188 104.11664063 194.27578125 103.8125 193.625 C102.67936157 191.20442344 101.9277491 189.9277491 100 188 C99.835 187.154375 99.67 186.30875 99.5 185.4375 C99.335 184.633125 99.17 183.82875 99 183 C98.34 182.67 97.68 182.34 97 182 C96.28865132 180.3519086 95.63026976 178.68076835 95 177 C93.06200064 172.90692493 91.02429696 168.86348105 89 164.8125 C88.4534375 163.70712891 87.906875 162.60175781 87.34375 161.46289062 C86.55484375 159.88217773 86.55484375 159.88217773 85.75 158.26953125 C85.27046875 157.30635986 84.7909375 156.34318848 84.296875 155.35083008 C83.08870298 152.90364841 83.08870298 152.90364841 81 151 C80.30699247 149.34411269 79.64473598 147.67527244 79 146 C78.04071905 143.99102036 77.06114709 141.99166006 76.06640625 140 C75.2165918 138.2984375 75.2165918 138.2984375 74.34960938 136.5625 C73.75986328 135.386875 73.17011719 134.21125 72.5625 133 C71.97662109 131.824375 71.39074219 130.64875 70.78710938 129.4375 C70.21927734 128.303125 69.65144531 127.16875 69.06640625 126 C68.2921228 124.453125 68.2921228 124.453125 67.50219727 122.875 C67.00647217 121.92625 66.51074707 120.9775 66 120 C65.69444687 119.14277344 65.38889374 118.28554687 65.07408142 117.40234375 C62.14749667 114.01257201 59.60629563 114.19222332 55.27148438 113.84960938 C54.29501953 113.79611328 53.31855469 113.74261719 52.3125 113.6875 C51.32443359 113.61466797 50.33636719 113.54183594 49.31835938 113.46679688 C46.87956659 113.29007276 44.44138035 113.13536806 42 113 C41.98969254 114.1503624 41.97938507 115.30072479 41.96876526 116.48594666 C41.87120916 127.30205659 41.76849244 138.1181067 41.66066074 148.93411922 C41.60538471 154.49536549 41.55195737 160.05661696 41.50268555 165.61791992 C41.45511085 170.9801209 41.40277082 176.34225573 41.34705925 181.70437813 C41.32660435 183.75498378 41.30789658 185.80560759 41.29092598 187.85624504 C41.26695112 190.7179512 41.2368875 193.57953107 41.20532227 196.44116211 C41.1995668 197.29783478 41.19381134 198.15450745 41.18788147 199.03713989 C41.11405216 204.88594784 41.11405216 204.88594784 40 206 C26.8 206 13.6 206 0 206 C0 138.02 0 70.04 0 0 Z M41 8 C41 40.01 41 72.02 41 105 C48.7075588 105.77075588 56.04519955 106.21326674 63.75 106.25 C64.84699219 106.270625 65.94398438 106.29125 67.07421875 106.3125 C76.5664098 106.35852274 81.79444047 103.81407053 88.75390625 97.44140625 C101.01387101 84.11535759 102.53781566 68.25507313 102.09326172 51.07177734 C101.52568862 38.46333408 95.99348839 27.3382587 86.75 18.8125 C73.13458299 7.89643582 58.1167388 8 41 8 Z " fill="#000000" transform="translate(356,3)"/>
<path d="M0 0 C12.87 0 25.74 0 39 0 C39.33 37.62 39.66 75.24 40 114 C52.87 101.13 65.74 88.26 79 75 C79 74.34 79 73.68 79 73 C79.99 73 80.98 73 82 73 C82.495 71.515 82.495 71.515 83 70 C83.66 70 84.32 70 85 70 C85 69.34 85 68.68 85 68 C86.375 66.375 86.375 66.375 88 65 C88.66 65 89.32 65 90 65 C90.25136719 64.42121094 90.50273438 63.84242187 90.76171875 63.24609375 C92.15592914 60.71716323 93.73790358 59.0656954 95.8125 57.0625 C96.81216797 56.08990234 96.81216797 56.08990234 97.83203125 55.09765625 C98.54746094 54.40542969 99.26289062 53.71320312 100 53 C101.66747029 51.33413734 103.33400614 49.66733921 105 48 C106.39976136 46.60830178 107.79954534 45.21662608 109.20001221 43.82563782 C111.32724197 41.71186142 113.45174293 39.59535064 115.57617188 37.47875977 C116.69834011 36.36166551 117.82139746 35.24546373 118.9453125 34.13012695 C120.57525916 32.51226275 122.20199561 30.89123102 123.828125 29.26953125 C124.33224915 28.77056839 124.83637329 28.27160553 125.35577393 27.75752258 C128.01257455 25.13179444 128.01257455 25.13179444 130 22 C130.66 22 131.32 22 132 22 C132.268125 21.41734375 132.53625 20.8346875 132.8125 20.234375 C134.01480991 17.97213399 135.33825913 16.19423682 137 14.25 C137.515625 13.63640625 138.03125 13.0228125 138.5625 12.390625 C140 11 140 11 142 11 C142.28101563 10.41734375 142.56203125 9.8346875 142.8515625 9.234375 C144.75117194 5.53853622 146.51918012 2.39306367 150 0 C154.06617301 -0.59644119 157.92134697 -0.41578502 162 0 C161.45036056 3.95696122 159.61332485 5.74582556 156.8190918 8.50561523 C155.93114426 9.39010849 155.04319672 10.27460175 154.12834167 11.18589783 C153.15204642 12.14354374 152.1756701 13.10110701 151.19921875 14.05859375 C150.20059301 15.04907797 149.20270409 16.04030558 148.20552063 17.03224182 C145.57813597 19.64251201 142.94232047 22.24409248 140.30419922 24.84350586 C136.09046962 28.99805744 131.88924461 33.16524176 127.68876076 37.33317757 C126.22474634 38.78330824 124.75693644 40.22950675 123.28849792 41.67515564 C122.3910939 42.56280106 121.49368988 43.45044647 120.5690918 44.36499023 C119.78157028 45.14124252 118.99404877 45.91749481 118.18266296 46.7172699 C115.91589489 49.00888583 115.91589489 49.00888583 113.83943176 51.78968811 C112.92891304 52.8837925 112.92891304 52.8837925 112 54 C111.34 54 110.68 54 110 54 C109.67 54.99 109.34 55.98 109 57 C108.34 57 107.68 57 107 57 C106.67 57.99 106.34 58.98 106 60 C105.34 60 104.68 60 104 60 C103.61714844 60.87398437 103.61714844 60.87398437 103.2265625 61.765625 C101.88258913 64.21388223 100.38189704 65.81743248 98.375 67.75 C97.74335937 68.36359375 97.11171875 68.9771875 96.4609375 69.609375 C95.97882813 70.06828125 95.49671875 70.5271875 95 71 C96.34455698 74.54434427 97.91228344 77.80799193 99.765625 81.11328125 C100.31855225 82.10118652 100.87147949 83.0890918 101.44116211 84.10693359 C102.03807861 85.16477051 102.63499512 86.22260742 103.25 87.3125 C103.87334229 88.42189941 104.49668457 89.53129883 105.13891602 90.67431641 C109.89200159 99.10553416 114.75844947 107.46746653 119.66357422 115.81103516 C124.82082303 124.6159886 129.77765782 133.52702842 134.67553711 142.47802734 C138.34285093 149.14707708 142.18940103 155.65688118 146.22583008 162.10620117 C148.36671092 165.5981319 150.30426789 169.17415916 152.234375 172.78515625 C154.59887601 177.09043132 157.08506294 181.32149843 159.5625 185.5625 C163.27756888 191.9327028 166.88626696 198.30805441 170 205 C169 206 169 206 167.09544373 206.12025452 C166.26271439 206.11803391 165.42998505 206.11581329 164.57202148 206.11352539 C163.63112167 206.11344986 162.69022186 206.11337433 161.72080994 206.11329651 C160.69790359 206.10813522 159.67499725 206.10297394 158.62109375 206.09765625 C157.058395 206.09553383 157.058395 206.09553383 155.46412659 206.09336853 C152.12188906 206.0877508 148.77971743 206.0751953 145.4375 206.0625 C143.17773534 206.05748728 140.91796963 206.05292398 138.65820312 206.04882812 C133.10544609 206.03777561 127.55272775 206.02102024 122 206 C121.61666504 205.28344238 121.23333008 204.56688477 120.83837891 203.82861328 C119.10427851 200.59208116 117.3647135 197.35851814 115.625 194.125 C115.02171875 192.99707031 114.4184375 191.86914062 113.796875 190.70703125 C113.21679688 189.63066406 112.63671875 188.55429688 112.0390625 187.4453125 C111.50490723 186.45031738 110.97075195 185.45532227 110.42041016 184.43017578 C109.09385416 181.92474749 109.09385416 181.92474749 107 180 C106.02670611 178.12229148 105.09724281 176.22180833 104.1875 174.3125 C101.04908513 167.88201782 97.60543979 161.65294833 94.0625 155.4375 C88.82482492 146.24643953 83.66627582 137.01582691 78.5625 127.75 C78.06050583 126.83926224 78.06050583 126.83926224 77.54837036 125.91012573 C73.34562088 118.28427438 69.16276104 110.6477504 65 103 C64.34 103 63.68 103 63 103 C62.34 103.825 61.68 104.65 61 105.5 C60.34 106.325 59.68 107.15 59 108 C58.34 108 57.68 108 57 108 C56.505 109.485 56.505 109.485 56 111 C55.34 111 54.68 111 54 111 C53.79453552 111.55488098 53.58907104 112.10976196 53.37738037 112.68145752 C51.83796473 115.27275374 49.93881063 116.78585098 47.62624741 118.67772293 C42.6126691 122.95213757 39.38676349 126.63188593 38.65577316 133.32730484 C38.46114733 137.37828304 38.50886963 141.40018336 38.609375 145.453125 C38.60931855 147.20718158 38.60395756 148.96124519 38.59356689 150.715271 C38.58048106 155.29342699 38.6385993 159.86790515 38.71246338 164.44537354 C38.78624066 169.95779575 38.76999791 175.47062539 38.76914978 180.98344421 C38.77779346 189.32459895 38.89948403 197.6571748 39 206 C25.8 206 12.6 206 -1 206 C-1.0225442 179.2885896 -1.04097752 152.57718687 -1.05181217 125.86576939 C-1.05697584 113.46413903 -1.06401989 101.06251498 -1.07543945 88.66088867 C-1.08538412 77.85587384 -1.09185291 67.05086358 -1.09408849 56.2458443 C-1.09539597 50.5208552 -1.09848415 44.79587917 -1.10573006 39.07089424 C-1.11248685 33.68905912 -1.11461766 28.30724255 -1.11310768 22.92540359 C-1.11338416 20.94398968 -1.11539129 18.96257519 -1.11920547 16.98116493 C-1.12413741 14.28836913 -1.12300015 11.59564454 -1.12025452 8.90284729 C-1.12316736 8.10811573 -1.1260802 7.31338417 -1.12908131 6.49456984 C-1.11412121 1.11412121 -1.11412121 1.11412121 0 0 Z " fill="#000000" transform="translate(1,3)"/>
<path d="M0 0 C1.30639183 -0.00956978 1.30639183 -0.00956978 2.63917542 -0.01933289 C4.03776039 -0.02100212 4.03776039 -0.02100212 5.46459961 -0.02270508 C6.91037636 -0.02769768 6.91037636 -0.02769768 8.38536072 -0.03279114 C10.42031375 -0.03784821 12.45527506 -0.04019984 14.49023438 -0.04003906 C17.60878034 -0.04223059 20.72697535 -0.06041302 23.84545898 -0.0793457 C25.82267132 -0.08227882 27.79988533 -0.08426416 29.77709961 -0.08520508 C30.71151382 -0.09239059 31.64592804 -0.09957611 32.60865784 -0.10697937 C33.91032143 -0.10236443 33.91032143 -0.10236443 35.23828125 -0.09765625 C36.00120987 -0.09908127 36.76413849 -0.10050629 37.55018616 -0.10197449 C39.55444336 0.14526367 39.55444336 0.14526367 42.55444336 2.14526367 C44.57196978 2.78902075 44.57196978 2.78902075 46.80053711 3.25854492 C47.63294922 3.45230713 48.46536133 3.64606934 49.32299805 3.84570312 C50.20375 4.04768311 51.08450195 4.24966309 51.99194336 4.45776367 C59.93380172 6.34742262 67.13991826 8.70355001 74.55444336 12.14526367 C72.528042 20.01858616 70.08411572 27.67259784 67.36694336 35.33276367 C66.99891602 36.38012695 66.63088867 37.42749023 66.25170898 38.5065918 C65.35603074 41.0540403 64.4569052 43.60021219 63.55444336 46.14526367 C59.79105535 45.34410521 58.14948902 44.09408672 55.36694336 41.39526367 C32.59548057 20.16207856 32.59548057 20.16207856 5.17944336 7.52026367 C-9.28773295 10.01460441 -21.25048985 15.69975749 -30.21899414 27.47338867 C-48.63635539 54.33539154 -49.2097967 94.22740713 -43.44555664 125.14526367 C-38.24364173 150.26041143 -29.17287428 177.48213767 -7.44555664 193.14526367 C8.64075543 202.60670244 21.99346837 203.00136117 40.55444336 201.14526367 C40.55444336 175.40526367 40.55444336 149.66526367 40.55444336 123.14526367 C54.08444336 123.14526367 67.61444336 123.14526367 81.55444336 123.14526367 C81.7148786 139.45617947 81.7148786 139.45617947 81.74975586 146.41088867 C81.77366425 151.15586241 81.80194209 155.90052729 81.85620117 160.64526367 C81.89967455 164.47079094 81.92358351 168.29598702 81.93395233 172.12174225 C81.94134114 173.58101872 81.95577 175.04027713 81.97736359 176.49941254 C82.0064196 178.54419567 82.01039877 180.58761187 82.00854492 182.63256836 C82.01742737 183.79616882 82.02630981 184.95976929 82.03546143 186.15863037 C81.45236651 189.77905717 80.37407382 190.88790689 77.55444336 193.14526367 C74.86162184 194.96597622 71.99286418 196.44581753 69.11694336 197.95776367 C68.2894458 198.39282227 67.46194824 198.82788086 66.609375 199.27612305 C57.32855006 203.99250821 47.59114886 207.41414603 37.55444336 210.14526367 C36.81556885 210.34845215 36.07669434 210.55164063 35.31542969 210.76098633 C27.85187474 212.53430109 20.29821023 212.51749121 12.67041016 212.51586914 C10.38814507 212.52022322 8.10785019 212.5565939 5.82592773 212.59448242 C-17.3443238 212.77128285 -39.71122192 203.31959113 -56.44555664 187.14526367 C-56.44555664 186.48526367 -56.44555664 185.82526367 -56.44555664 185.14526367 C-57.10555664 185.14526367 -57.76555664 185.14526367 -58.44555664 185.14526367 C-60.42077808 182.83273518 -62.25894664 180.51959496 -64.07055664 178.08276367 C-64.60817627 177.35976074 -65.1457959 176.63675781 -65.69970703 175.8918457 C-84.13814822 150.56277127 -90.82551725 119.78907375 -86.12915039 88.92260742 C-80.79327706 59.43809595 -66.39894422 33.28948459 -41.84399414 15.38354492 C-31.5652671 8.40457461 -20.48675813 4.02538889 -8.44555664 1.14526367 C-7.50366234 0.88086739 -7.50366234 0.88086739 -6.54273987 0.61112976 C-4.30032288 0.1130016 -2.29580601 0.01145852 0 0 Z " fill="#000000" transform="translate(684.445556640625,-0.145263671875)"/>
<path d="M0 0 C8.58 0 17.16 0 26 0 C28.36607091 5.91517728 30.66798999 11.71003374 32.65039062 17.73999023 C32.88529205 18.44600876 33.12019348 19.15202728 33.36221313 19.87944031 C34.12967316 22.18824539 34.89291469 24.49842206 35.65625 26.80859375 C36.20439816 28.45933782 36.75286726 30.10997535 37.30163574 31.76051331 C38.7462559 36.10762248 40.18754616 40.45582735 41.62780762 44.80438232 C44.17509969 52.49456618 46.72695856 60.1832322 49.28125 67.87109375 C49.56048183 68.71197037 49.83971367 69.55284698 50.12740707 70.41920471 C54.42290773 83.34835227 58.80642518 96.2453192 63.24263382 109.12679482 C66.6736879 119.0917339 70.04209684 129.0712396 73.23544312 139.11526489 C78.44105022 155.47329591 83.95051644 171.72285433 89.54443359 187.95166016 C89.83452805 188.79479263 90.1246225 189.63792511 90.42350769 190.50660706 C90.96691475 192.08507236 91.51183509 193.66301783 92.05854797 195.24034119 C94.43780008 202.14913948 94.43780008 202.14913948 95 205 C94 206 94 206 90.03100586 206.11352539 C88.25894393 206.1133662 86.4868774 206.10766785 84.71484375 206.09765625 C83.78402481 206.0962413 82.85320587 206.09482635 81.8941803 206.09336853 C78.90858809 206.08775172 75.92306971 206.0751964 72.9375 206.0625 C70.91862087 206.05748716 68.89974057 206.05292388 66.88085938 206.04882812 C61.92054428 206.03777683 56.96028468 206.02050095 52 206 C51.64284912 204.89825439 51.28569824 203.79650879 50.91772461 202.66137695 C49.56000257 198.47388904 48.20126478 194.28673134 46.84213257 190.09970093 C46.24088691 188.24724445 45.63983185 186.39472609 45.03897095 184.54214478 C39.53949572 167.5873487 39.53949572 167.5873487 33.82983398 150.70239258 C32.80035778 147.67516708 32 145.2221101 32 142 C8.24 142.33 -15.52 142.66 -40 143 C-42.02125 149.3525 -44.0425 155.705 -46.125 162.25 C-46.74906738 164.2084082 -47.37313477 166.16681641 -48.01611328 168.18457031 C-51.14801726 178.03560031 -54.20800378 187.90310451 -57.12844849 197.81915283 C-58.89725635 203.7945127 -58.89725635 203.7945127 -60 206 C-63.3 206 -66.6 206 -70 206 C-68.69775961 199.68198538 -67.01661621 193.6874691 -64.90234375 187.59765625 C-64.59660934 186.7041597 -64.29087494 185.81066315 -63.97587585 184.89009094 C-62.96745498 181.94604087 -61.95240788 179.0043194 -60.9375 176.0625 C-60.21805642 173.96518852 -59.49915455 171.86769115 -58.78076172 169.77001953 C-57.27708633 165.38038187 -55.77130608 160.99147456 -54.26416016 156.60302734 C-51.04650776 147.22727906 -47.85891252 137.84133554 -44.6713562 128.45532227 C-43.61634639 125.349525 -42.56039229 122.24405032 -41.50415039 119.13867188 C-37.81322055 108.28630316 -34.12896481 97.43170819 -30.453125 86.57421875 C-23.20480761 65.17113194 -15.92527022 43.77994617 -8.5 22.4375 C-8.02019684 21.05451218 -8.02019684 21.05451218 -7.53070068 19.64358521 C-6.63802812 17.07253826 -5.74159601 14.50283792 -4.84375 11.93359375 C-4.58316803 11.18210052 -4.32258606 10.4306073 -4.05410767 9.65634155 C-2.87392295 6.29416864 -1.59848076 3.19696152 0 0 Z M-4 36 C-6.79077021 42.78673517 -9.31315242 49.62381655 -11.65234375 56.578125 C-11.98924225 57.57209793 -12.32614075 58.56607086 -12.67324829 59.59016418 C-13.76381709 62.80927447 -14.85068104 66.02962201 -15.9375 69.25 C-17.07268973 72.60443259 -18.2088033 75.95855128 -19.34501648 79.31263733 C-20.11054802 81.57257491 -20.87577571 83.83261543 -21.64070129 86.09275818 C-24.08179752 93.30256072 -26.53736793 100.50723395 -29.0078125 107.70703125 C-29.31399002 108.59959625 -29.62016754 109.49216125 -29.93562317 110.41177368 C-31.09404604 113.7875874 -32.2529807 117.16322111 -33.41452026 120.53796387 C-34.19556404 122.8074347 -34.97487606 125.07749361 -35.75390625 127.34765625 C-36.09949081 128.34863091 -36.09949081 128.34863091 -36.45205688 129.36982727 C-37.54210502 132.12242141 -37.54210502 132.12242141 -38 135 C-15.89 135 6.22 135 29 135 C27.1902059 128.3640883 25.38442521 121.86251346 23.1875 115.3671875 C22.93250732 114.60503937 22.67751465 113.84289124 22.41479492 113.05764771 C21.61272667 110.66246004 20.80647497 108.268707 20 105.875 C19.46065404 104.26702213 18.92158977 102.65894976 18.3828125 101.05078125 C17.38845727 98.08388488 16.39242295 95.11756411 15.39453125 92.15185547 C12.77291612 84.35177404 10.18922666 76.5403738 7.64453125 68.71484375 C7.33803146 67.77314835 7.03153168 66.83145294 6.71574402 65.86122131 C5.74769681 62.88674481 4.78009098 59.91212494 3.8125 56.9375 C3.15172201 54.90689151 2.490915 52.87629246 1.83007812 50.84570312 C0.21971663 45.89724452 -1.39028362 40.9486685 -3 36 C-3.33 36 -3.66 36 -4 36 Z " fill="#000000" transform="translate(242,3)"/>
<path d="M0 0 C1.084021 0.00523682 2.16804199 0.01047363 3.28491211 0.01586914 C4.45473633 0.0190918 5.62456055 0.02231445 6.82983398 0.02563477 C8.0615332 0.03401367 9.29323242 0.04239258 10.56225586 0.05102539 C12.41560547 0.05779297 12.41560547 0.05779297 14.30639648 0.06469727 C17.37089703 0.07652931 20.43530307 0.09301366 23.49975586 0.11352539 C27.03575687 7.54328751 29.63488473 15.19663698 32.18579102 23.00216675 C33.49802128 27.0165021 34.82555419 31.02577724 36.15209961 35.03540039 C36.42706268 35.86752548 36.70202576 36.69965057 36.98532104 37.55699158 C39.65631883 45.62303533 42.41686284 53.65735311 45.18606567 61.69009399 C50.02094938 75.71856447 54.69805725 89.78842341 59.23950195 103.91448975 C63.54471766 117.29450134 68.04747065 130.59970822 72.62231445 143.88964844 C76.5191192 155.2145491 80.34591624 166.56122093 84.12475586 177.92602539 C84.37700928 178.68464874 84.6292627 179.44327209 84.88916016 180.22488403 C86.82291174 186.04261418 86.82291174 186.04261418 87.70306396 188.70436096 C88.62050992 191.47797569 89.54607388 194.24779333 90.4987793 197.00952148 C92.49975586 202.81515535 92.49975586 202.81515535 92.49975586 206.11352539 C78.63975586 206.11352539 64.77975586 206.11352539 50.49975586 206.11352539 C48.02565876 199.92828265 45.6713767 193.8913108 43.65991211 187.57055664 C43.41107773 186.79902756 43.16224335 186.02749847 42.90586853 185.23258972 C42.12136526 182.79811458 41.34159488 180.36215806 40.56225586 177.92602539 C39.78822022 175.51648425 39.01316752 173.10727315 38.23764038 170.69821167 C37.73057646 169.12270392 37.22424001 167.54696184 36.71865845 165.97097778 C35.50463998 162.19448961 34.27484919 158.42458838 33.00708008 154.66577148 C32.77315048 153.97198898 32.53922089 153.27820648 32.29820251 152.56340027 C31.66195118 150.68414334 31.02131192 148.80637364 30.38037109 146.92871094 C29.49975586 144.11352539 29.49975586 144.11352539 29.49975586 142.11352539 C5.73975586 142.11352539 -18.02024414 142.11352539 -42.50024414 142.11352539 C-43.49024414 145.74352539 -44.48024414 149.37352539 -45.50024414 153.11352539 C-46.32784655 155.90282849 -47.16431175 158.68582359 -48.02368164 161.46508789 C-48.25173492 162.20826263 -48.47978821 162.95143738 -48.7147522 163.71713257 C-49.43330121 166.05809688 -50.15407267 168.39836778 -50.87524414 170.73852539 C-51.82183659 173.81365415 -52.7672329 176.88914656 -53.71118164 179.96508789 C-54.05666046 181.09083221 -54.05666046 181.09083221 -54.40911865 182.23931885 C-56.83803929 190.1782258 -59.17620122 198.143388 -61.50024414 206.11352539 C-64.80024414 206.11352539 -68.10024414 206.11352539 -71.50024414 206.11352539 C-72.50024414 204.11352539 -72.50024414 204.11352539 -72.03135681 202.13682556 C-71.751595 201.32339188 -71.47183319 200.50995819 -71.18359375 199.671875 C-70.86776337 198.74159485 -70.55193298 197.8113147 -70.22653198 196.85284424 C-69.87213043 195.83414246 -69.51772888 194.81544067 -69.15258789 193.76586914 C-68.60865891 192.17388702 -68.60865891 192.17388702 -68.05374146 190.54974365 C-66.85539156 187.04773366 -65.64654066 183.54944178 -64.43774414 180.05102539 C-63.60100245 177.61157593 -62.76498961 175.17187636 -61.9296875 172.73193359 C-60.24450386 167.81287237 -58.55539518 162.89518916 -56.86254883 157.97875977 C-54.01901444 149.71944383 -51.19626061 141.45310235 -48.37652588 133.18563843 C-47.55206669 130.76973741 -46.72628058 128.35429358 -45.90014648 125.93896484 C-42.56272464 116.17853157 -39.24384852 106.4119563 -35.93774414 96.64086914 C-34.31294095 91.84002126 -32.68794237 87.03923956 -31.06274414 82.23852539 C-30.66096954 81.0515506 -30.25919495 79.86457581 -29.84524536 78.64163208 C-23.7132547 60.53502001 -17.4863492 42.463912 -11.13134766 24.43432617 C-10.55599728 22.79888713 -9.98102853 21.16331377 -9.40649414 19.52758789 C-9.14082138 18.77132111 -8.87514862 18.01505432 -8.60142517 17.23587036 C-6.93065754 12.44446732 -5.38587015 7.63421642 -4.02563477 2.74389648 C-3.17425973 0.10194364 -2.87229049 0.13041842 0 0 Z M-6.50024414 35.11352539 C-6.88132324 36.23170654 -7.26240234 37.3498877 -7.6550293 38.50195312 C-9.14062993 42.86095769 -10.62636252 47.21991726 -12.1121521 51.57885742 C-12.78715651 53.55915775 -13.46214433 55.53946373 -14.13711548 57.51977539 C-17.91218326 68.59520033 -21.68913838 79.66997359 -25.47290039 90.74243164 C-25.7881366 91.66503281 -26.1033728 92.58763397 -26.42816162 93.53819275 C-27.92834535 97.92865146 -29.42899369 102.31895041 -30.93041992 106.70898438 C-32.22892739 110.50650935 -33.52309609 114.30549099 -34.81512451 118.10522461 C-35.46556988 120.01188424 -36.12261535 121.91628854 -36.7800293 123.82055664 C-37.14789551 124.89692383 -37.51576172 125.97329102 -37.89477539 127.08227539 C-38.20906494 127.99428711 -38.52335449 128.90629883 -38.84716797 129.84594727 C-39.63862241 132.2007038 -39.63862241 132.2007038 -39.50024414 135.11352539 C-17.72024414 135.11352539 4.05975586 135.11352539 26.49975586 135.11352539 C25.26399593 129.55260569 24.11595993 124.59890384 22.31225586 119.29321289 C22.0974054 118.65564056 21.88255493 118.01806824 21.66119385 117.36117554 C21.1916825 115.96877796 20.72019976 114.57704389 20.24694824 113.18591309 C18.91964987 109.28251528 17.60870294 105.37362488 16.29663086 101.46508789 C16.00673279 100.6024231 15.71683472 99.7397583 15.41815186 98.85095215 C11.12357947 86.04555633 6.9445405 73.20186367 2.74975586 60.36352539 C1.93075967 57.85814965 1.11174954 55.35277846 0.29272461 52.84741211 C-1.63928202 46.9364485 -3.57023562 41.02514169 -5.50024414 35.11352539 C-5.83024414 35.11352539 -6.16024414 35.11352539 -6.50024414 35.11352539 Z " fill="#000000" transform="translate(847.500244140625,2.886474609375)"/>
<path d="M0 0 C13.2 0 26.4 0 40 0 C40 67.98 40 135.96 40 206 C26.8 206 13.6 206 0 206 C-0.2076294 195.10424782 -0.40044302 184.20894139 -0.5625 173.3125 C-0.57523327 172.45744495 -0.58796654 171.60238991 -0.60108566 170.7214241 C-1.15153832 132.95677333 -0.90277443 95.2022742 -0.5625 57.4375 C-0.55610205 56.72514836 -0.5497041 56.01279672 -0.54311228 55.27885866 C-0.37731188 36.85241313 -0.19470321 18.42616428 0 0 Z " fill="#000000" transform="translate(1134,3)"/>
<path d="M0 0 C13.2 0 26.4 0 40 0 C40 67.98 40 135.96 40 206 C26.8 206 13.6 206 0 206 C0 138.02 0 70.04 0 0 Z " fill="#000000" transform="translate(531,3)"/>
<path d="M0 0 C0.33 0 0.66 0 1 0 C1 1.65 1 3.3 1 5 C0.67 5 0.34 5 0 5 C0 3.35 0 1.7 0 0 Z " fill="#000000" transform="translate(354,173)"/>
<path d="M0 0 C2 1 2 1 2 1 Z " fill="#000000" transform="translate(268,136)"/>
<path d="M0 0 C2 1 2 1 2 1 Z " fill="#000000" transform="translate(674,0)"/>
<path d="" fill="#FFFFFF" transform="translate(0,0)"/>
<path d="" fill="#000000" transform="translate(0,0)"/>
<path d="" fill="#000000" transform="translate(0,0)"/>
<path d="" fill="#FFFFFF" transform="translate(0,0)"/>
<path d="" fill="#000000" transform="translate(0,0)"/>
<path d="" fill="#FFFFFF" transform="translate(0,0)"/>
<path d="" fill="#000000" transform="translate(0,0)"/>
<path d="" fill="#FFFFFF" transform="translate(0,0)"/>
<path d="" fill="#FFFFFF" transform="translate(0,0)"/>
<path d="" fill="#000000" transform="translate(0,0)"/>
<path d="" fill="#000000" transform="translate(0,0)"/>
<path d="" fill="#000000" transform="translate(0,0)"/>
<path d="" fill="#000000" transform="translate(0,0)"/>
<path d="" fill="#FFFFFF" transform="translate(0,0)"/>
<path d="" fill="#000000" transform="translate(0,0)"/>
<path d="" fill="#FFFFFF" transform="translate(0,0)"/>
<path d="" fill="#FFFFFF" transform="translate(0,0)"/>
<path d="" fill="#000000" transform="translate(0,0)"/>
<path d="" fill="#000000" transform="translate(0,0)"/>
<path d="" fill="#000000" transform="translate(0,0)"/>
<path d="" fill="#FFFFFF" transform="translate(0,0)"/>
<path d="" fill="#000000" transform="translate(0,0)"/>
<path d="" fill="#000000" transform="translate(0,0)"/>
<path d="" fill="#000000" transform="translate(0,0)"/>
<path d="" fill="#FFFFFF" transform="translate(0,0)"/>
<path d="" fill="#000000" transform="translate(0,0)"/>
<path d="" fill="#FFFFFF" transform="translate(0,0)"/>
<path d="" fill="#000000" transform="translate(0,0)"/>
<path d="" fill="#000000" transform="translate(0,0)"/>
<path d="" fill="#000000" transform="translate(0,0)"/>
<path d="" fill="#FFFFFF" transform="translate(0,0)"/>
<path d="" fill="#FFFFFF" transform="translate(0,0)"/>
<path d="" fill="#FFFFFF" transform="translate(0,0)"/>
<path d="" fill="#000000" transform="translate(0,0)"/>
<path d="" fill="#FFFFFF" transform="translate(0,0)"/>
<path d="" fill="#FFFFFF" transform="translate(0,0)"/>
<path d="" fill="#000000" transform="translate(0,0)"/>
<path d="" fill="#000000" transform="translate(0,0)"/>
<path d="" fill="#000000" transform="translate(0,0)"/>
<path d="" fill="#000000" transform="translate(0,0)"/>
<path d="" fill="#000000" transform="translate(0,0)"/>
<path d="" fill="#000000" transform="translate(0,0)"/>
<path d="" fill="#000000" transform="translate(0,0)"/>
<path d="" fill="#000000" transform="translate(0,0)"/>
<path d="" fill="#000000" transform="translate(0,0)"/>
<path d="" fill="#000000" transform="translate(0,0)"/>
<path d="" fill="#FFFFFF" transform="translate(0,0)"/>
<path d="" fill="#FFFFFF" transform="translate(0,0)"/>
<path d="" fill="#000000" transform="translate(0,0)"/>
<path d="" fill="#000000" transform="translate(0,0)"/>
<path d="" fill="#000000" transform="translate(0,0)"/>
<path d="" fill="#FFFFFF" transform="translate(0,0)"/>
<path d="" fill="#000000" transform="translate(0,0)"/>
<path d="" fill="#000000" transform="translate(0,0)"/>
<path d="" fill="#FFFFFF" transform="translate(0,0)"/>
<path d="" fill="#FFFFFF" transform="translate(0,0)"/>
<path d="" fill="#FFFFFF" transform="translate(0,0)"/>
<path d="" fill="#FFFFFF" transform="translate(0,0)"/>
<path d="" fill="#000000" transform="translate(0,0)"/>
<path d="" fill="#FFFFFF" transform="translate(0,0)"/>
<path d="" fill="#FFFFFF" transform="translate(0,0)"/>
<path d="" fill="#000000" transform="translate(0,0)"/>
<path d="" fill="#FFFFFF" transform="translate(0,0)"/>
<path d="" fill="#000000" transform="translate(0,0)"/>
<path d="" fill="#FFFFFF" transform="translate(0,0)"/>
<path d="" fill="#000000" transform="translate(0,0)"/>
<path d="" fill="#000000" transform="translate(0,0)"/>
<path d="" fill="#FFFFFF" transform="translate(0,0)"/>
<path d="" fill="#000000" transform="translate(0,0)"/>
<path d="" fill="#000000" transform="translate(0,0)"/>
<path d="" fill="#FFFFFF" transform="translate(0,0)"/>
<path d="" fill="#000000" transform="translate(0,0)"/>
<path d="" fill="#FFFFFF" transform="translate(0,0)"/>
<path d="" fill="#FFFFFF" transform="translate(0,0)"/>
<path d="" fill="#FFFFFF" transform="translate(0,0)"/>
<path d="" fill="#FFFFFF" transform="translate(0,0)"/>
<path d="" fill="#000000" transform="translate(0,0)"/>
<path d="" fill="#000000" transform="translate(0,0)"/>
<path d="" fill="#000000" transform="translate(0,0)"/>
<path d="" fill="#000000" transform="translate(0,0)"/>
<path d="" fill="#FFFFFF" transform="translate(0,0)"/>
<path d="" fill="#FFFFFF" transform="translate(0,0)"/>
<path d="" fill="#FFFFFF" transform="translate(0,0)"/>
<path d="" fill="#FFFFFF" transform="translate(0,0)"/>
<path d="" fill="#000000" transform="translate(0,0)"/>
<path d="" fill="#000000" transform="translate(0,0)"/>
<path d="" fill="#000000" transform="translate(0,0)"/>
<path d="" fill="#000000" transform="translate(0,0)"/>
<path d="" fill="#000000" transform="translate(0,0)"/>
<path d="" fill="#000000" transform="translate(0,0)"/>
<path d="" fill="#FFFFFF" transform="translate(0,0)"/>
<path d="" fill="#FFFFFF" transform="translate(0,0)"/>
<path d="" fill="#FFFFFF" transform="translate(0,0)"/>
<path d="" fill="#FFFFFF" transform="translate(0,0)"/>
<path d="" fill="#000000" transform="translate(0,0)"/>
<path d="" fill="#FFFFFF" transform="translate(0,0)"/>
<path d="" fill="#000000" transform="translate(0,0)"/>
<path d="" fill="#FFFFFF" transform="translate(0,0)"/>
<path d="" fill="#FFFFFF" transform="translate(0,0)"/>
<path d="" fill="#FFFFFF" transform="translate(0,0)"/>
<path d="" fill="#FFFFFF" transform="translate(0,0)"/>
<path d="" fill="#FFFFFF" transform="translate(0,0)"/>
<path d="" fill="#FFFFFF" transform="translate(0,0)"/>
<path d="" fill="#FFFFFF" transform="translate(0,0)"/>
<path d="" fill="#FFFFFF" transform="translate(0,0)"/>
<path d="" fill="#FFFFFF" transform="translate(0,0)"/>
<path d="" fill="#000000" transform="translate(0,0)"/>
<path d="" fill="#FFFFFF" transform="translate(0,0)"/>
<path d="" fill="#FFFFFF" transform="translate(0,0)"/>
<path d="" fill="#000000" transform="translate(0,0)"/>
<path d="" fill="#FFFFFF" transform="translate(0,0)"/>
<path d="" fill="#000000" transform="translate(0,0)"/>
<path d="" fill="#000000" transform="translate(0,0)"/>
<path d="" fill="#000000" transform="translate(0,0)"/>
<path d="" fill="#FFFFFF" transform="translate(0,0)"/>
<path d="" fill="#000000" transform="translate(0,0)"/>
<path d="" fill="#FFFFFF" transform="translate(0,0)"/>
<path d="" fill="#000000" transform="translate(0,0)"/>
<path d="" fill="#000000" transform="translate(0,0)"/>
</svg>
