<svg width="160" height="48" viewBox="0 0 160 48" fill="none" xmlns="http://www.w3.org/2000/svg">
  <path d="M16.384 30.4H13.84L9.984 25.536L7.984 27.504V30.4H5.92V16H7.984V25.024L13.52 19.488H16.192L11.328 24.352L16.384 30.4Z" fill="#C8B98A"/>
  <path d="M29.4587 24.864C29.4587 25.152 29.4427 25.456 29.4107 25.776H20.6827C20.7467 26.64 21.0587 27.312 21.6187 27.792C22.1787 28.272 22.8667 28.512 23.6827 28.512C24.8667 28.512 25.7307 28.048 26.2747 27.12H29.2187C28.8347 28.176 28.1627 29.04 27.2027 29.712C26.2427 30.368 25.0747 30.696 23.6987 30.696C22.6027 30.696 21.6187 30.456 20.7467 29.976C19.8907 29.48 19.2187 28.8 18.7307 27.936C18.2587 27.072 18.0187 26.08 18.0187 24.96C18.0187 23.84 18.2507 22.848 18.7147 21.984C19.1947 21.12 19.8587 20.448 20.7067 19.968C21.5547 19.488 22.5467 19.248 23.6747 19.248C24.7547 19.248 25.7147 19.48 26.5547 19.944C27.3947 20.408 28.0427 21.064 28.4987 21.912C28.9707 22.744 29.2027 23.728 29.2027 24.864H29.4587ZM26.7307 23.696C26.7307 22.944 26.4427 22.344 25.8667 21.896C25.2907 21.448 24.5787 21.224 23.7307 21.224C22.9467 21.224 22.2747 21.44 21.7147 21.872C21.1547 22.304 20.8187 22.912 20.7067 23.696H26.7307Z" fill="#C8B98A"/>
  <path d="M36.0265 30.696C34.9625 30.696 34.0105 30.456 33.1705 29.976C32.3305 29.496 31.6665 28.824 31.1785 27.96C30.7065 27.096 30.4705 26.096 30.4705 24.96C30.4705 23.84 30.7145 22.848 31.2025 21.984C31.6905 21.12 32.3625 20.448 33.2185 19.968C34.0745 19.488 35.0345 19.248 36.0985 19.248C37.1625 19.248 38.1225 19.488 38.9785 19.968C39.8345 20.448 40.5065 21.12 40.9945 21.984C41.4825 22.848 41.7265 23.84 41.7265 24.96C41.7265 26.08 41.4745 27.072 40.9705 27.936C40.4825 28.8 39.8025 29.48 38.9305 29.976C38.0585 30.456 37.0905 30.696 36.0265 30.696ZM36.0265 28.512C36.5385 28.512 37.0025 28.4 37.4185 28.176C37.8505 27.936 38.1945 27.576 38.4505 27.096C38.7065 26.616 38.8345 25.984 38.8345 25.2C38.8345 24.128 38.5545 23.288 37.9945 22.68C37.4505 22.056 36.7865 21.744 35.9945 21.744C35.2025 21.744 34.5385 22.056 34.0025 22.68C33.4825 23.288 33.2225 24.128 33.2225 25.2C33.2225 26.272 33.4745 27.12 33.9785 27.744C34.4985 28.352 35.1865 28.656 36.0265 28.512Z" fill="#C8B98A"/>
  <path d="M48.9702 30.696C47.9062 30.696 46.9542 30.456 46.1142 29.976C45.2742 29.496 44.6102 28.824 44.1222 27.96C43.6502 27.096 43.4142 26.096 43.4142 24.96C43.4142 23.84 43.6582 22.848 44.1462 21.984C44.6342 21.12 45.3062 20.448 46.1622 19.968C47.0182 19.488 47.9782 19.248 49.0422 19.248C50.1062 19.248 51.0662 19.488 51.9222 19.968C52.7782 20.448 53.4502 21.12 53.9382 21.984C54.4262 22.848 54.6702 23.84 54.6702 24.96C54.6702 26.08 54.4182 27.072 53.9142 27.936C53.4262 28.8 52.7462 29.48 51.8742 29.976C51.0022 30.456 50.0342 30.696 48.9702 30.696ZM48.9702 28.512C49.4822 28.512 49.9462 28.4 50.3622 28.176C50.7942 27.936 51.1382 27.576 51.3942 27.096C51.6502 26.616 51.7782 25.984 51.7782 25.2C51.7782 24.128 51.4982 23.288 50.9382 22.68C50.3942 22.056 49.7302 21.744 48.9382 21.744C48.1462 21.744 47.4822 22.056 46.9462 22.68C46.4262 23.288 46.1662 24.128 46.1662 25.2C46.1662 26.272 46.4182 27.12 46.9222 27.744C47.4422 28.352 48.1302 28.656 48.9702 28.512Z" fill="#C8B98A"/>
  <path d="M58.1928 24.96C58.1928 23.824 58.4288 22.832 58.9008 21.984C59.3728 21.12 60.0128 20.448 60.8208 19.968C61.6448 19.488 62.5488 19.248 63.5328 19.248C64.3008 19.248 65.0368 19.4 65.7408 19.704C66.4608 20.008 67.0448 20.44 67.4928 21V19.488H70.5328V30.4H67.4928V28.888C67.0288 29.448 66.4368 29.88 65.7168 30.184C65.0128 30.488 64.2768 30.64 63.5088 30.64C62.5408 30.64 61.6448 30.4 60.8208 29.92C60.0128 29.424 59.3728 28.744 58.9008 27.88C58.4288 27 58.1928 26.048 58.1928 24.96ZM67.4928 24.96C67.4928 24.24 67.3248 23.632 66.9888 23.136C66.6688 22.624 66.2608 22.24 65.7648 21.984C65.2688 21.712 64.7408 21.576 64.1808 21.576C63.6208 21.576 63.0928 21.704 62.5968 21.96C62.1008 22.216 61.6928 22.6 61.3728 23.112C61.0528 23.608 60.8928 24.216 60.8928 24.936C60.8928 25.656 61.0528 26.28 61.3728 26.808C61.6928 27.32 62.1008 27.712 62.5968 27.984C63.1088 28.24 63.6368 28.368 64.1808 28.368C64.7408 28.368 65.2688 28.24 65.7648 27.984C66.2608 27.712 66.6688 27.32 66.9888 26.808C67.3248 26.28 67.4928 25.664 67.4928 24.96Z" fill="#C8B98A"/>
  <path d="M83.5592 19.488L78.2952 30.4H75.1592L69.8952 19.488H73.1752L76.7112 27.528L80.3192 19.488H83.5592Z" fill="#C8B98A"/>
  <path d="M92.9592 19.488C94.2232 19.488 95.3352 19.824 96.2952 20.496C97.2552 21.152 98.0072 22.064 98.5512 23.232C99.0952 24.384 99.3672 25.704 99.3672 27.192C99.3672 28.68 99.0952 30.008 98.5512 31.176C98.0072 32.328 97.2552 33.24 96.2952 33.912C95.3352 34.568 94.2232 34.896 92.9592 34.896H88.0232V19.488H92.9592ZM92.6712 32.4C94.0872 32.4 95.2072 31.952 96.0312 31.056C96.8552 30.16 97.2672 28.872 97.2672 27.192C97.2672 25.512 96.8552 24.224 96.0312 23.328C95.2072 22.432 94.0872 21.984 92.6712 21.984H90.1112V32.4H92.6712Z" fill="#C8B98A"/>
  <path d="M109.702 24.864C109.702 25.152 109.686 25.456 109.654 25.776H100.926C100.99 26.64 101.302 27.312 101.862 27.792C102.422 28.272 103.11 28.512 103.926 28.512C105.11 28.512 105.974 28.048 106.518 27.12H109.462C109.078 28.176 108.406 29.04 107.446 29.712C106.486 30.368 105.318 30.696 103.942 30.696C102.846 30.696 101.862 30.456 100.99 29.976C100.134 29.48 99.4615 28.8 98.9735 27.936C98.5015 27.072 98.2615 26.08 98.2615 24.96C98.2615 23.84 98.4935 22.848 98.9575 21.984C99.4375 21.12 100.102 20.448 100.95 19.968C101.798 19.488 102.79 19.248 103.918 19.248C104.998 19.248 105.958 19.48 106.798 19.944C107.638 20.408 108.286 21.064 108.742 21.912C109.214 22.744 109.446 23.728 109.446 24.864H109.702ZM106.974 23.696C106.974 22.944 106.686 22.344 106.11 21.896C105.534 21.448 104.822 21.224 103.974 21.224C103.19 21.224 102.518 21.44 101.958 21.872C101.398 22.304 101.062 22.912 100.95 23.696H106.974Z" fill="#C8B98A"/>
  <path d="M117.659 19.248C118.427 19.248 119.107 19.4 119.699 19.704C120.307 20.008 120.787 20.432 121.139 20.976V19.488H124.179V30.472C124.179 31.576 123.963 32.552 123.531 33.4C123.099 34.264 122.443 34.944 121.563 35.44C120.699 35.936 119.659 36.184 118.443 36.184C116.779 36.184 115.395 35.8 114.291 35.032C113.187 34.28 112.563 33.24 112.419 31.912H115.411C115.571 32.44 115.899 32.856 116.395 33.16C116.907 33.48 117.523 33.64 118.243 33.64C119.075 33.64 119.747 33.4 120.259 32.92C120.787 32.456 121.051 31.736 121.051 30.76V28.768C120.683 29.312 120.203 29.744 119.611 30.064C119.019 30.384 118.347 30.544 117.595 30.544C116.651 30.544 115.795 30.312 115.027 29.848C114.259 29.368 113.659 28.696 113.227 27.832C112.795 26.952 112.579 25.944 112.579 24.808C112.579 23.672 112.795 22.68 113.227 21.832C113.659 20.984 114.251 20.328 115.003 19.864C115.771 19.4 116.651 19.168 117.659 19.248ZM121.139 24.832C121.139 24.144 121.003 23.56 120.731 23.08C120.459 22.584 120.091 22.208 119.627 21.952C119.163 21.696 118.667 21.568 118.139 21.568C117.611 21.568 117.115 21.696 116.651 21.952C116.203 22.192 115.835 22.56 115.547 23.056C115.275 23.552 115.139 24.136 115.139 24.808C115.139 25.48 115.275 26.072 115.547 26.584C115.835 27.08 116.203 27.464 116.651 27.736C117.115 28.008 117.611 28.144 118.139 28.144C118.667 28.144 119.163 28.016 119.627 27.76C120.091 27.504 120.459 27.128 120.731 26.632C121.003 26.136 121.139 25.536 121.139 24.832Z" fill="#C8B98A"/>
  <path d="M133.752 19.488L138.4 30.4H135.384L134.408 28.224H127.992L127.016 30.4H124L128.648 19.488H133.752ZM133.368 26.088L131.2 21.152L129.032 26.088H133.368Z" fill="#C8B98A"/>
  <path d="M143.575 30.608C142.559 30.608 141.631 30.456 140.791 30.152C139.951 29.832 139.287 29.392 138.799 28.832L140.007 26.984C140.455 27.464 140.999 27.84 141.639 28.112C142.279 28.368 142.943 28.496 143.631 28.496C144.287 28.496 144.775 28.392 145.095 28.184C145.431 27.976 145.599 27.688 145.599 27.32C145.599 27.032 145.487 26.8 145.263 26.624C145.055 26.448 144.783 26.312 144.447 26.216C144.127 26.12 143.679 26.008 143.103 25.88C142.223 25.688 141.495 25.496 140.919 25.304C140.343 25.112 139.855 24.8 139.455 24.368C139.071 23.936 138.879 23.344 138.879 22.592C138.879 21.936 139.047 21.336 139.383 20.792C139.735 20.232 140.255 19.792 140.943 19.472C141.647 19.136 142.495 18.968 143.487 18.968C144.287 18.968 145.063 19.088 145.815 19.328C146.567 19.552 147.199 19.888 147.711 20.336L146.599 22.184C146.103 21.8 145.567 21.52 144.991 21.344C144.431 21.152 143.887 21.056 143.359 21.056C142.719 21.056 142.231 21.168 141.895 21.392C141.559 21.616 141.391 21.92 141.391 22.304C141.391 22.608 141.495 22.856 141.703 23.048C141.927 23.224 142.207 23.368 142.543 23.48C142.879 23.576 143.343 23.688 143.935 23.816C144.799 24.008 145.511 24.2 146.071 24.392C146.631 24.584 147.103 24.888 147.487 25.304C147.871 25.72 148.063 26.288 148.063 27.008C148.063 27.648 147.887 28.232 147.535 28.76C147.183 29.288 146.655 29.712 145.951 30.032C145.247 30.352 144.487 30.512 143.575 30.608Z" fill="#C8B98A"/>
</svg>